<svg width="1666" height="450" viewBox="0 0 1666 450" fill="none" xmlns="http://www.w3.org/2000/svg">
<path d="M-3.05176e-05 0V448.75H97.9303L99.5762 104.919L206.5 0H-3.05176e-05Z" fill="#46222E"/>
<path d="M140.078 224.504L182.753 267.937L364.33 448.761H495.06L270.162 224.504L495.06 0.1875H364.33L182.577 181.188L140.078 224.504Z" fill="#46222E"/>
<path d="M688.331 90.5352L758.955 196.194H713.583L663.98 121.893L640.739 151.586V196.125H603.484V0H640.739V95.0446L713.583 0H758.955L688.331 90.5352Z" fill="#46222E"/>
<path d="M820.627 36.2141V78.2557H899.646V114.4H820.627V160.05H906.098V196.194H783.303V0H906.098V36.1447H820.627V36.2141Z" fill="#46222E"/>
<path d="M975.615 36.2141V78.2557H1054.63V114.4H975.615V160.05H1061.09V196.194H938.291V0H1061.09V36.1447H975.615V36.2141Z" fill="#46222E"/>
<path d="M1093.34 0H1124.42L1221.69 125.57V0H1258.94V196.194H1227.86L1130.6 70.6244V196.194H1093.34V0Z" fill="#46222E"/>
<path d="M1426.28 162.339H1332.41L1318.4 196.264H1279.69L1364.12 0H1394.92L1479 196.194H1440.29L1426.28 162.27V162.339ZM1412.89 129.802L1379.52 49.3954L1346.15 129.802H1412.89Z" fill="#46222E"/>
<path d="M1500.03 0H1531.11L1628.37 125.57V0H1665.63V196.194H1634.54L1537.28 70.6244V196.194H1500.03V0Z" fill="#46222E"/>
<path d="M688.607 333.018H766.238V419.599C756.872 428.965 746.05 436.249 733.701 441.452C721.352 446.656 708.379 449.292 694.712 449.292C676.397 449.292 659.469 444.782 643.998 435.694C628.458 426.606 616.248 414.326 607.298 398.856C598.349 383.316 593.84 366.457 593.84 348.142C593.84 329.827 598.349 312.344 607.437 296.874C616.525 281.403 628.735 269.054 644.137 260.035C659.538 250.947 676.397 246.438 694.712 246.438C708.517 246.438 721.629 249.143 733.978 254.554C746.327 259.966 757.15 267.458 766.515 276.963L739.32 304.436C733.562 298.261 726.833 293.405 719.271 289.867C711.709 286.328 703.522 284.525 694.712 284.525C683.473 284.525 673.205 287.369 663.77 293.058C654.335 298.747 646.842 306.447 641.362 316.16C635.881 325.873 633.106 336.556 633.106 348.142C633.106 359.728 635.812 370.342 641.223 379.916C646.634 389.559 654.058 397.191 663.493 402.88C672.928 408.568 683.334 411.413 694.712 411.413C707.061 411.413 718.508 407.736 729.191 400.451V369.649H688.537V332.949L688.607 333.018Z" fill="#46222E"/>
<path d="M948.143 445.956H904.714L852.613 371.932H836.934V445.956H799.679V249.762H873.98C895.279 249.762 911.998 255.312 924.139 266.412C936.28 277.512 942.385 292.358 942.385 310.812C942.385 325.173 937.945 337.661 929.065 348.206C920.185 358.751 908.738 365.827 894.724 369.365L948.282 445.887L948.143 445.956ZM874.743 336.62C883.554 336.62 890.422 334.192 895.487 329.336C900.551 324.479 903.049 318.305 903.049 310.812C903.049 303.32 900.551 297.145 895.626 292.15C890.7 287.225 883.901 284.727 875.298 284.727H836.934V336.551H874.743V336.62Z" fill="#46222E"/>
<path d="M1009.82 435.694C994.275 426.606 982.065 414.326 973.116 398.856C964.166 383.316 959.657 366.457 959.657 348.142C959.657 329.827 964.166 312.344 973.255 296.874C982.343 281.403 994.553 269.054 1009.95 260.035C1025.36 250.947 1042.21 246.438 1060.53 246.438C1078.84 246.438 1095.7 251.016 1111.1 260.174C1126.51 269.331 1138.78 281.68 1147.8 297.29C1156.89 312.899 1161.4 329.827 1161.4 348.142C1161.4 366.457 1156.89 383.107 1147.8 398.578C1138.72 414.118 1126.51 426.398 1111.1 435.555C1095.7 444.713 1078.84 449.292 1060.53 449.292C1042.21 449.292 1025.29 444.782 1009.82 435.694ZM1092.37 404.059C1101.81 398.37 1109.23 390.6 1114.64 380.818C1120.05 371.036 1122.76 360.144 1122.76 348.142C1122.76 336.14 1120.05 325.179 1114.64 315.189C1109.23 305.199 1101.81 297.359 1092.37 291.67C1082.94 285.982 1072.32 283.137 1060.6 283.137C1048.87 283.137 1038.19 285.982 1028.76 291.67C1019.32 297.359 1011.97 305.199 1006.62 315.189C1001.28 325.179 998.646 336.14 998.646 348.142C998.646 360.144 1001.28 370.967 1006.62 380.818C1011.97 390.669 1019.32 398.37 1028.76 404.059C1038.19 409.748 1048.8 412.592 1060.6 412.592C1072.39 412.592 1082.94 409.748 1092.37 404.059Z" fill="#46222E"/>
<path d="M1342.47 249.762V363.26C1342.47 380.465 1339.42 395.52 1333.38 408.493C1327.28 421.466 1318.47 431.526 1306.74 438.602C1295.02 445.678 1281.07 449.286 1264.84 449.286C1248.61 449.286 1234.59 445.748 1222.94 438.602C1211.28 431.526 1202.4 421.466 1196.3 408.493C1190.19 395.52 1187.21 380.396 1187.21 363.26V249.762H1224.46V364.093C1224.46 379.217 1227.93 391.219 1235.01 399.96C1242.02 408.771 1251.94 413.141 1264.84 413.141C1277.74 413.141 1287.66 408.771 1294.67 399.96C1301.68 391.149 1305.22 379.217 1305.22 364.093V249.762H1342.47Z" fill="#46222E"/>
<path d="M1485.73 257.879C1496 263.29 1504.12 270.852 1510.08 280.564C1516.05 290.277 1519.03 301.308 1519.03 313.657C1519.03 326.006 1516.05 337.036 1510.08 346.888C1504.12 356.67 1496 364.37 1485.8 369.851C1475.6 375.332 1464.36 378.107 1452.02 378.107H1415.04V445.956H1377.78V249.762H1451.81C1464.16 249.762 1475.46 252.467 1485.73 257.879ZM1472.27 334.955C1477.89 329.544 1480.67 322.467 1480.67 313.657C1480.67 304.846 1477.89 298.117 1472.41 292.775C1466.93 287.433 1459.02 284.796 1448.75 284.796H1415.11V343.072H1448.2C1458.68 343.072 1466.72 340.366 1472.27 334.955Z" fill="#46222E"/>
</svg>
